<svg xmlns="http://www.w3.org/2000/svg" width="37.5" viewBox="0 0 37.5 37.5" height="37.5" version="1.0"><defs><clipPath id="a"><path d="M 11.25 11.335938 L 26.25 11.335938 L 26.25 26.335938 L 11.25 26.335938 Z M 11.25 11.335938"/></clipPath></defs><g clip-path="url(#a)"><path d="M 26.242188 18.835938 C 26.242188 14.691406 22.886719 11.335938 18.75 11.335938 C 14.613281 11.335938 11.257812 14.691406 11.257812 18.835938 C 11.257812 22.976562 14.613281 26.335938 18.75 26.335938 C 22.886719 26.335938 26.242188 22.976562 26.242188 18.835938 Z M 17.335938 13.882812 L 20.164062 13.882812 L 20.164062 17.417969 L 23.699219 17.417969 L 23.699219 20.25 L 20.164062 20.25 L 20.164062 23.789062 L 17.335938 23.789062 L 17.335938 20.25 L 13.800781 20.25 L 13.800781 17.417969 L 17.335938 17.417969 L 17.335938 13.882812" fill-rule="evenodd"/></g></svg>