<svg xmlns="http://www.w3.org/2000/svg" width="37.5" viewBox="0 0 37.5 37.5" height="37.5" version="1.0"><defs><clipPath id="a"><path d="M 14.296875 11.25 L 23.296875 11.25 L 23.296875 26.25 L 14.296875 26.25 Z M 14.296875 11.25"/></clipPath></defs><g clip-path="url(#a)"><path fill="#CABDFF" d="M 14.382812 24.9375 C 14.382812 25.160156 14.464844 25.359375 14.621094 25.523438 L 15.117188 26.015625 C 15.269531 26.167969 15.484375 26.25 15.710938 26.25 C 15.933594 26.25 16.136719 26.167969 16.289062 26.015625 L 23.046875 19.332031 C 23.199219 19.179688 23.28125 18.96875 23.28125 18.742188 C 23.28125 18.519531 23.199219 18.320312 23.046875 18.15625 L 16.300781 11.484375 C 16.148438 11.332031 15.933594 11.25 15.722656 11.25 C 15.496094 11.25 15.292969 11.332031 15.128906 11.484375 L 14.632812 11.976562 C 14.3125 12.292969 14.3125 12.820312 14.632812 13.136719 L 20.296875 18.742188 L 14.621094 24.363281 C 14.464844 24.515625 14.382812 24.714844 14.382812 24.9375 Z M 14.382812 24.9375"/></g></svg>